<svg width="48" height="48" viewBox="0 0 48 48" fill="none" xmlns="http://www.w3.org/2000/svg">
<path d="M37 11V7H23V22H14V26H23V41H37V37H27V26H37V22H27V11H37Z" fill="#285CF3"/>
<path d="M18 17V31H4V17H18Z" fill="#3DDAB4"/>
<path d="M18 22H14V26H18V22Z" fill="#00B3D7"/>
<path d="M43 34V44H33V34H43Z" fill="#3DDAB4"/>
<path d="M37 37H33V41H37V37Z" fill="#00B3D7"/>
<path d="M43 4V14H33V4H43Z" fill="#3DDAB4"/>
<path d="M37 7H33V11H37V7Z" fill="#00B3D7"/>
<path d="M43 19V29H33V19H43Z" fill="#3DDAB4"/>
<path d="M37 22H33V26H37V22Z" fill="#00B3D7"/>
</svg>
