<svg width="48" height="48" viewBox="0 0 48 48" fill="none" xmlns="http://www.w3.org/2000/svg">
<path d="M10 6H6V42H10V6Z" fill="#285CF3"/>
<path d="M46 38H6V42H46V38Z" fill="#285CF3"/>
<path d="M10 38H6V42H10V38Z" fill="#0143CC"/>
<path d="M19 20H16V23H19V20Z" fill="#285CF3"/>
<path d="M13 20H10V23H13V20Z" fill="#285CF3"/>
<path d="M25 20H22V23H25V20Z" fill="#285CF3"/>
<path d="M31 20H28V23H31V20Z" fill="#285CF3"/>
<path d="M37 20H34V23H37V20Z" fill="#285CF3"/>
<path d="M43 20H40V23H43V20Z" fill="#285CF3"/>
<path d="M21 20.2L11 11.2L13 9L21 16.1L28.9 8.6L37.5 12.1L44 6L46 8.2L38.2 15.6L29.6 12.1L21 20.2Z" fill="#E14DAF"/>
<path d="M21 36.2L11 27.2L13 25L21 32.1L28.9 24.6L37.5 28.1L44 22L46 24.2L38.2 31.6L29.6 28.1L21 36.2Z" fill="#3DDAB4"/>
</svg>
